<svg id="visual" viewBox="0 0 960 300" width="960" height="300" xmlns="http://www.w3.org/2000/svg" xmlns:xlink="http://www.w3.org/1999/xlink" version="1.1"><rect x="0" y="0" width="960" height="300" fill="#FCAF3C"></rect><path d="M0 193L12.3 192C24.7 191 49.3 189 74 186.3C98.7 183.7 123.3 180.3 148 179.8C172.7 179.3 197.3 181.7 221.8 185.2C246.3 188.7 270.7 193.3 295.2 196.3C319.7 199.3 344.3 200.7 369 196.3C393.7 192 418.3 182 443 182C467.7 182 492.3 192 517 194.2C541.7 196.3 566.3 190.7 591 187.7C615.7 184.7 640.3 184.3 664.8 186.5C689.3 188.7 713.7 193.3 738.2 195.3C762.7 197.3 787.3 196.7 812 196.5C836.7 196.3 861.3 196.7 886 197.3C910.7 198 935.3 199 947.7 199.5L960 200L960 301L947.7 301C935.3 301 910.7 301 886 301C861.3 301 836.7 301 812 301C787.3 301 762.7 301 738.2 301C713.7 301 689.3 301 664.8 301C640.3 301 615.7 301 591 301C566.3 301 541.7 301 517 301C492.3 301 467.7 301 443 301C418.3 301 393.7 301 369 301C344.3 301 319.7 301 295.2 301C270.7 301 246.3 301 221.8 301C197.3 301 172.7 301 148 301C123.3 301 98.7 301 74 301C49.3 301 24.7 301 12.3 301L0 301Z" fill="#fcaf3c"></path><path d="M0 195L12.3 196.7C24.7 198.3 49.3 201.7 74 202C98.7 202.3 123.3 199.7 148 202.8C172.7 206 197.3 215 221.8 219.7C246.3 224.3 270.7 224.7 295.2 225C319.7 225.3 344.3 225.7 369 224.8C393.7 224 418.3 222 443 222.3C467.7 222.7 492.3 225.3 517 224.8C541.7 224.3 566.3 220.7 591 217.5C615.7 214.3 640.3 211.7 664.8 212.2C689.3 212.7 713.7 216.3 738.2 214.7C762.7 213 787.3 206 812 203.3C836.7 200.7 861.3 202.3 886 206.8C910.7 211.3 935.3 218.7 947.7 222.3L960 226L960 301L947.7 301C935.3 301 910.7 301 886 301C861.3 301 836.7 301 812 301C787.3 301 762.7 301 738.2 301C713.7 301 689.3 301 664.8 301C640.3 301 615.7 301 591 301C566.3 301 541.7 301 517 301C492.3 301 467.7 301 443 301C418.3 301 393.7 301 369 301C344.3 301 319.7 301 295.2 301C270.7 301 246.3 301 221.8 301C197.3 301 172.7 301 148 301C123.3 301 98.7 301 74 301C49.3 301 24.7 301 12.3 301L0 301Z" fill="#ec7556"></path><path d="M0 219L12.3 220.8C24.7 222.7 49.3 226.3 74 225.5C98.7 224.7 123.3 219.3 148 220C172.7 220.7 197.3 227.3 221.8 226.8C246.3 226.3 270.7 218.7 295.2 217.2C319.7 215.7 344.3 220.3 369 222.3C393.7 224.3 418.3 223.7 443 221C467.7 218.3 492.3 213.7 517 216.3C541.7 219 566.3 229 591 233C615.7 237 640.3 235 664.8 234.8C689.3 234.7 713.7 236.3 738.2 232.8C762.7 229.3 787.3 220.7 812 220.3C836.7 220 861.3 228 886 230.7C910.7 233.3 935.3 230.7 947.7 229.3L960 228L960 301L947.7 301C935.3 301 910.7 301 886 301C861.3 301 836.7 301 812 301C787.3 301 762.7 301 738.2 301C713.7 301 689.3 301 664.8 301C640.3 301 615.7 301 591 301C566.3 301 541.7 301 517 301C492.3 301 467.7 301 443 301C418.3 301 393.7 301 369 301C344.3 301 319.7 301 295.2 301C270.7 301 246.3 301 221.8 301C197.3 301 172.7 301 148 301C123.3 301 98.7 301 74 301C49.3 301 24.7 301 12.3 301L0 301Z" fill="#ba4d69"></path><path d="M0 254L12.3 252.2C24.7 250.3 49.3 246.7 74 247C98.7 247.3 123.3 251.7 148 249.5C172.7 247.3 197.3 238.7 221.8 235.2C246.3 231.7 270.7 233.3 295.2 233.5C319.7 233.7 344.3 232.3 369 232C393.7 231.7 418.3 232.3 443 233.5C467.7 234.7 492.3 236.3 517 239.2C541.7 242 566.3 246 591 245.7C615.7 245.3 640.3 240.7 664.8 238.2C689.3 235.7 713.7 235.3 738.2 238C762.7 240.7 787.3 246.3 812 248.3C836.7 250.3 861.3 248.7 886 245.5C910.7 242.3 935.3 237.7 947.7 235.3L960 233L960 301L947.7 301C935.3 301 910.7 301 886 301C861.3 301 836.7 301 812 301C787.3 301 762.7 301 738.2 301C713.7 301 689.3 301 664.8 301C640.3 301 615.7 301 591 301C566.3 301 541.7 301 517 301C492.3 301 467.7 301 443 301C418.3 301 393.7 301 369 301C344.3 301 319.7 301 295.2 301C270.7 301 246.3 301 221.8 301C197.3 301 172.7 301 148 301C123.3 301 98.7 301 74 301C49.3 301 24.7 301 12.3 301L0 301Z" fill="#753a67"></path><path d="M0 254L12.3 256.2C24.7 258.3 49.3 262.7 74 265.5C98.7 268.3 123.3 269.7 148 268.2C172.7 266.7 197.3 262.3 221.8 260.3C246.3 258.3 270.7 258.7 295.2 260.5C319.7 262.3 344.3 265.7 369 267.5C393.7 269.3 418.3 269.7 443 266.8C467.7 264 492.3 258 517 255.2C541.7 252.3 566.3 252.7 591 255C615.7 257.3 640.3 261.7 664.8 261.3C689.3 261 713.7 256 738.2 254.8C762.7 253.7 787.3 256.3 812 258.7C836.7 261 861.3 263 886 263C910.7 263 935.3 261 947.7 260L960 259L960 301L947.7 301C935.3 301 910.7 301 886 301C861.3 301 836.7 301 812 301C787.3 301 762.7 301 738.2 301C713.7 301 689.3 301 664.8 301C640.3 301 615.7 301 591 301C566.3 301 541.7 301 517 301C492.3 301 467.7 301 443 301C418.3 301 393.7 301 369 301C344.3 301 319.7 301 295.2 301C270.7 301 246.3 301 221.8 301C197.3 301 172.7 301 148 301C123.3 301 98.7 301 74 301C49.3 301 24.7 301 12.3 301L0 301Z" fill="#31294d"></path><path d="M0 280L12.3 280.7C24.7 281.3 49.3 282.7 74 281.2C98.7 279.7 123.3 275.3 148 276C172.7 276.7 197.3 282.3 221.8 285.2C246.3 288 270.7 288 295.2 285.8C319.7 283.7 344.3 279.3 369 279.2C393.7 279 418.3 283 443 284.7C467.7 286.3 492.3 285.7 517 285.5C541.7 285.3 566.3 285.7 591 283.8C615.7 282 640.3 278 664.8 275.3C689.3 272.7 713.7 271.3 738.2 271.7C762.7 272 787.3 274 812 275.7C836.7 277.3 861.3 278.7 886 277.3C910.7 276 935.3 272 947.7 270L960 268L960 301L947.7 301C935.3 301 910.7 301 886 301C861.3 301 836.7 301 812 301C787.3 301 762.7 301 738.2 301C713.7 301 689.3 301 664.8 301C640.3 301 615.7 301 591 301C566.3 301 541.7 301 517 301C492.3 301 467.7 301 443 301C418.3 301 393.7 301 369 301C344.3 301 319.7 301 295.2 301C270.7 301 246.3 301 221.8 301C197.3 301 172.7 301 148 301C123.3 301 98.7 301 74 301C49.3 301 24.7 301 12.3 301L0 301Z" fill="#001122"></path></svg>