<svg id="visual" viewBox="0 0 1080 200" width="1080" height="200" xmlns="http://www.w3.org/2000/svg" xmlns:xlink="http://www.w3.org/1999/xlink" version="1.1"><rect x="0" y="0" width="1080" height="200" fill="#f2ae72"></rect><path d="M0 136L10.7 136C21.3 136 42.7 136 63.8 131.3C85 126.7 106 117.3 127.2 114.7C148.3 112 169.7 116 190.8 120.2C212 124.3 233 128.7 254.2 130.8C275.3 133 296.7 133 317.8 128C339 123 360 113 381.2 108.2C402.3 103.3 423.7 103.7 444.8 105.5C466 107.3 487 110.7 508.2 111.2C529.3 111.7 550.7 109.3 571.8 112.5C593 115.7 614 124.3 635.2 128.3C656.3 132.3 677.7 131.7 698.8 127.7C720 123.7 741 116.3 762.2 115C783.3 113.7 804.7 118.3 825.8 121.8C847 125.3 868 127.7 889.2 129.2C910.3 130.7 931.7 131.3 952.8 129.8C974 128.3 995 124.7 1016.2 121.3C1037.3 118 1058.7 115 1069.3 113.5L1080 112L1080 201L1069.3 201C1058.7 201 1037.3 201 1016.2 201C995 201 974 201 952.8 201C931.7 201 910.3 201 889.2 201C868 201 847 201 825.8 201C804.7 201 783.3 201 762.2 201C741 201 720 201 698.8 201C677.7 201 656.3 201 635.2 201C614 201 593 201 571.8 201C550.7 201 529.3 201 508.2 201C487 201 466 201 444.8 201C423.7 201 402.3 201 381.2 201C360 201 339 201 317.8 201C296.7 201 275.3 201 254.2 201C233 201 212 201 190.8 201C169.7 201 148.3 201 127.2 201C106 201 85 201 63.8 201C42.7 201 21.3 201 10.7 201L0 201Z" fill="#f2ae72"></path><path d="M0 136L10.7 134.7C21.3 133.3 42.7 130.7 63.8 129C85 127.3 106 126.7 127.2 129.8C148.3 133 169.7 140 190.8 142.5C212 145 233 143 254.2 142.3C275.3 141.7 296.7 142.3 317.8 143C339 143.7 360 144.3 381.2 143.5C402.3 142.7 423.7 140.3 444.8 137.8C466 135.3 487 132.7 508.2 130C529.3 127.3 550.7 124.7 571.8 127.5C593 130.3 614 138.7 635.2 140C656.3 141.3 677.7 135.7 698.8 132.3C720 129 741 128 762.2 128.7C783.3 129.3 804.7 131.7 825.8 131.3C847 131 868 128 889.2 130.5C910.3 133 931.7 141 952.8 144.2C974 147.3 995 145.7 1016.2 144C1037.3 142.3 1058.7 140.7 1069.3 139.8L1080 139L1080 201L1069.3 201C1058.7 201 1037.3 201 1016.2 201C995 201 974 201 952.8 201C931.7 201 910.3 201 889.2 201C868 201 847 201 825.8 201C804.7 201 783.3 201 762.2 201C741 201 720 201 698.8 201C677.7 201 656.3 201 635.2 201C614 201 593 201 571.8 201C550.7 201 529.3 201 508.2 201C487 201 466 201 444.8 201C423.7 201 402.3 201 381.2 201C360 201 339 201 317.8 201C296.7 201 275.3 201 254.2 201C233 201 212 201 190.8 201C169.7 201 148.3 201 127.2 201C106 201 85 201 63.8 201C42.7 201 21.3 201 10.7 201L0 201Z" fill="#dea372"></path><path d="M0 162L10.7 158.2C21.3 154.3 42.7 146.7 63.8 145.5C85 144.3 106 149.7 127.2 151.3C148.3 153 169.7 151 190.8 149C212 147 233 145 254.2 143.2C275.3 141.3 296.7 139.7 317.8 140.3C339 141 360 144 381.2 148.3C402.3 152.7 423.7 158.3 444.8 159.3C466 160.3 487 156.7 508.2 152C529.3 147.3 550.7 141.7 571.8 142.8C593 144 614 152 635.2 156.5C656.3 161 677.7 162 698.8 159.2C720 156.3 741 149.7 762.2 148C783.3 146.3 804.7 149.7 825.8 151.3C847 153 868 153 889.2 153.7C910.3 154.3 931.7 155.7 952.8 157C974 158.3 995 159.7 1016.2 156.3C1037.3 153 1058.7 145 1069.3 141L1080 137L1080 201L1069.3 201C1058.7 201 1037.3 201 1016.2 201C995 201 974 201 952.8 201C931.7 201 910.3 201 889.2 201C868 201 847 201 825.8 201C804.7 201 783.3 201 762.2 201C741 201 720 201 698.8 201C677.7 201 656.3 201 635.2 201C614 201 593 201 571.8 201C550.7 201 529.3 201 508.2 201C487 201 466 201 444.8 201C423.7 201 402.3 201 381.2 201C360 201 339 201 317.8 201C296.7 201 275.3 201 254.2 201C233 201 212 201 190.8 201C169.7 201 148.3 201 127.2 201C106 201 85 201 63.8 201C42.7 201 21.3 201 10.7 201L0 201Z" fill="#ca9871"></path><path d="M0 165L10.7 164.5C21.3 164 42.7 163 63.8 163.7C85 164.3 106 166.7 127.2 166.5C148.3 166.3 169.7 163.7 190.8 161C212 158.3 233 155.7 254.2 155.5C275.3 155.3 296.7 157.7 317.8 158.7C339 159.7 360 159.3 381.2 158.7C402.3 158 423.7 157 444.8 158.2C466 159.3 487 162.7 508.2 164C529.3 165.3 550.7 164.7 571.8 162.7C593 160.7 614 157.3 635.2 159.2C656.3 161 677.7 168 698.8 168.7C720 169.3 741 163.7 762.2 160.8C783.3 158 804.7 158 825.8 158.5C847 159 868 160 889.2 162.5C910.3 165 931.7 169 952.8 171.3C974 173.7 995 174.3 1016.2 172.5C1037.3 170.7 1058.7 166.3 1069.3 164.2L1080 162L1080 201L1069.3 201C1058.7 201 1037.3 201 1016.2 201C995 201 974 201 952.8 201C931.7 201 910.3 201 889.2 201C868 201 847 201 825.8 201C804.7 201 783.3 201 762.2 201C741 201 720 201 698.8 201C677.7 201 656.3 201 635.2 201C614 201 593 201 571.8 201C550.7 201 529.3 201 508.2 201C487 201 466 201 444.8 201C423.7 201 402.3 201 381.2 201C360 201 339 201 317.8 201C296.7 201 275.3 201 254.2 201C233 201 212 201 190.8 201C169.7 201 148.3 201 127.2 201C106 201 85 201 63.8 201C42.7 201 21.3 201 10.7 201L0 201Z" fill="#b68d70"></path><path d="M0 184L10.7 182.7C21.3 181.3 42.7 178.7 63.8 176.5C85 174.3 106 172.7 127.2 174.2C148.3 175.7 169.7 180.3 190.8 180.8C212 181.3 233 177.7 254.2 176C275.3 174.3 296.7 174.7 317.8 176.2C339 177.7 360 180.3 381.2 179.8C402.3 179.3 423.7 175.7 444.8 175.5C466 175.3 487 178.7 508.2 181.2C529.3 183.7 550.7 185.3 571.8 186C593 186.7 614 186.3 635.2 186.5C656.3 186.7 677.7 187.3 698.8 186C720 184.7 741 181.3 762.2 180.3C783.3 179.3 804.7 180.7 825.8 180.3C847 180 868 178 889.2 177.2C910.3 176.3 931.7 176.7 952.8 178.2C974 179.7 995 182.3 1016.2 181.2C1037.3 180 1058.7 175 1069.3 172.5L1080 170L1080 201L1069.3 201C1058.7 201 1037.3 201 1016.2 201C995 201 974 201 952.8 201C931.7 201 910.3 201 889.2 201C868 201 847 201 825.8 201C804.7 201 783.3 201 762.2 201C741 201 720 201 698.8 201C677.7 201 656.3 201 635.2 201C614 201 593 201 571.8 201C550.7 201 529.3 201 508.2 201C487 201 466 201 444.8 201C423.7 201 402.3 201 381.2 201C360 201 339 201 317.8 201C296.7 201 275.3 201 254.2 201C233 201 212 201 190.8 201C169.7 201 148.3 201 127.2 201C106 201 85 201 63.8 201C42.7 201 21.3 201 10.7 201L0 201Z" fill="#a2836e"></path></svg>